<?xml version="1.0" encoding="UTF-8" standalone="no"?>
<svg
   version="1.1"
   x="0px"
   y="0px"
   viewBox="0 0 1000 1000"
   enable-background="new 0 0 1000 1000"
   xml:space="preserve"
   id="svg6"
   sodipodi:docname="szy_settings_dark.svg"
   inkscape:version="1.2.2 (b0a8486541, 2022-12-01)"
   xmlns:inkscape="http://www.inkscape.org/namespaces/inkscape"
   xmlns:sodipodi="http://sodipodi.sourceforge.net/DTD/sodipodi-0.dtd"
   xmlns="http://www.w3.org/2000/svg"
   xmlns:svg="http://www.w3.org/2000/svg"><defs
   id="defs10" /><sodipodi:namedview
   id="namedview8"
   pagecolor="#ffffff"
   bordercolor="#666666"
   borderopacity="1.0"
   inkscape:showpageshadow="2"
   inkscape:pageopacity="0.0"
   inkscape:pagecheckerboard="0"
   inkscape:deskcolor="#d1d1d1"
   showgrid="false"
   inkscape:zoom="0.85"
   inkscape:cx="500"
   inkscape:cy="501.76471"
   inkscape:window-width="1452"
   inkscape:window-height="752"
   inkscape:window-x="50"
   inkscape:window-y="114"
   inkscape:window-maximized="0"
   inkscape:current-layer="svg6" />
<g
   id="g4"
   style="fill:#1a1a1a"><path
     d="M929.2,407.3l-78.5-17.4c-6.2-19.6-14.2-38.4-23.4-56.4l42.6-70.8c16-25.4,23.9-62.7,0-86.6l-43.4-43.3c-23.8-23.9-64.3-19.6-88.7-2.7l-68.9,43.9c-17.9-9.3-36.6-17.2-56-23.5l-17.6-79.6C589.9,41.6,564.4,10,530.6,10h-61.3c-33.8,0-54.5,32.1-61.3,61.3l-19.6,78.6c-20.8,6.6-40.7,15.1-59.7,25.1l-70.7-45c-24.3-16.9-64.7-21.2-88.6,2.8L126.2,176c-23.9,23.9-15.9,61.3,0,86.6l44.7,74.6c-8.4,16.9-15.8,34.4-21.6,52.7l-78.6,17.4C41.6,412.5,10,438.1,10,471.9v61.3c0,33.8,32.1,54.5,61.2,61.2l79.6,19.9c5.5,16.9,12.4,33.1,20.2,48.7l-44.8,74.6c-15.9,25.3-23.9,62.7,0,86.6l43.3,43.4c23.9,23.9,64.3,19.6,88.6,2.8l70.8-45.2c19.1,10.1,39.1,18.6,60,25.2l19.6,78.4C415.3,958,436,990,469.8,990h61.3c33.8,0,59.3-31.6,64.5-60.7l17.7-79.7c19.2-6.2,37.6-14.1,55.4-23.2l69.1,44c24.4,16.9,64.8,21.2,88.6-2.8l43.4-43.3c23.9-23.9,15.9-61.2,0-86.6l-42.6-70.9c8.5-16.8,16-34.3,22-52.4l79.6-19.9c29.2-6.7,61.2-27.4,61.2-61.2v-61.3C990,438.1,958.4,412.5,929.2,407.3z M928.7,528.8c-2.6,1.9-7.4,4.5-13.7,5.8L801.5,563L791,595.2c-4.7,14.6-10.9,29.2-18.3,43.8l-15.4,30.2l60,100.1c3.8,6.1,5.6,11.6,6.1,14.8l-40.3,40.2c-3.9-1.3-8.3-2.8-10.4-4.3l-100.8-64.3l-31.3,16.2c-15.1,7.8-30.6,14.3-46,19.3L561.2,802L536,916c-1.2,6.1-4.5,11-6.7,12.8h-55.1c-1.9-2.6-4.5-7.5-5.8-13.7l-28.2-112.8l-32.6-10.3c-16.8-5.3-33.6-12.3-49.9-21l-31.5-16.7l-100.8,64.3c-4.1,2.8-8.5,4.4-12.6,4.4l-40.2-39c0.6-3.2,2.2-8.4,5.5-13.8l62.6-104.3l-14.9-30.1c-7-14.1-12.5-27.4-16.8-40.5L198.5,563L86.1,534.9c-7.1-1.6-12.2-4.3-14.8-6.1v-56.9c0,0,0.1,0,0.1,0c1,0,6.1-3.6,10.3-4.4L197.1,442l10.6-33.7c4.3-13.8,10.2-28.1,18-43.8l14.9-30l-61.9-103.3c-3.8-6.2-5.6-11.6-6.2-14.8l40.3-40.3c3.9,1.3,8.3,2.8,10.4,4.3l102.7,65.5l31.5-16.6c16.1-8.5,32.8-15.5,49.7-20.9l32.5-10.3l27.9-111.7c1.7-7.1,4.3-12.2,6.1-14.8h56.9c-0.4,0.6,3.5,6,4.4,10.4l25.7,116.2l33.3,10.8c15.7,5.1,31.3,11.6,46.6,19.6l31.3,16.3l98.8-62.9c4.1-2.8,8.5-4.4,12.5-4.4l40.2,39.1c-0.6,3.2-2.2,8.4-5.6,13.8L757.2,331l15.5,30.2c8.3,16.3,14.7,31.6,19.4,46.8l10.6,33.8L915.9,467c6.9,1.3,12.1,5.2,13.3,7.4L928.7,528.8z M500.4,316C398.7,316,316,398.6,316,500c0,101.4,82.8,184,184.5,184c101.7,0,184.4-82.6,184.4-184C684.8,398.6,602.1,316,500.4,316z M500,622.5c-67.6,0-122.5-55-122.5-122.5c0-67.5,55-122.5,122.5-122.5c67.5,0,122.5,55,122.5,122.5C622.5,567.6,567.5,622.5,500,622.5z"
     id="path2"
     style="fill:#1a1a1a" /></g>
</svg>
