<?xml version="1.0" encoding="UTF-8" standalone="no"?>
<svg
   xmlns:dc="http://purl.org/dc/elements/1.1/"
   xmlns:cc="http://creativecommons.org/ns#"
   xmlns:rdf="http://www.w3.org/1999/02/22-rdf-syntax-ns#"
   xmlns:svg="http://www.w3.org/2000/svg"
   xmlns="http://www.w3.org/2000/svg"
   xmlns:sodipodi="http://sodipodi.sourceforge.net/DTD/sodipodi-0.dtd"
   xmlns:inkscape="http://www.inkscape.org/namespaces/inkscape"
   width="128mm"
   height="128mm"
   viewBox="0 0 128 128"
   version="1.1"
   id="svg8"
   inkscape:version="1.0.1 (0767f8302a, 2020-10-17)"
   sodipodi:docname="rysunek.svg">
  <defs
     id="defs2" />
  <sodipodi:namedview
     id="base"
     pagecolor="#ffffff"
     bordercolor="#666666"
     borderopacity="1.0"
     inkscape:pageopacity="0.0"
     inkscape:pageshadow="2"
     inkscape:zoom="1.4"
     inkscape:cx="263.90465"
     inkscape:cy="226.60921"
     inkscape:document-units="mm"
     inkscape:current-layer="layer1"
     inkscape:document-rotation="0"
     showgrid="false"
     inkscape:window-width="1920"
     inkscape:window-height="1016"
     inkscape:window-x="0"
     inkscape:window-y="27"
     inkscape:window-maximized="1" />
  <metadata
     id="metadata5">
    <rdf:RDF>
      <cc:Work
         rdf:about="">
        <dc:format>image/svg+xml</dc:format>
        <dc:type
           rdf:resource="http://purl.org/dc/dcmitype/StillImage" />
        <dc:title />
      </cc:Work>
    </rdf:RDF>
  </metadata>
  <g
     inkscape:label="Warstwa 1"
     inkscape:groupmode="layer"
     id="layer1">
    <rect
       style="fill:#ffffff;stroke-width:1.75;stroke-linecap:round;stroke-linejoin:round;paint-order:markers fill stroke"
       id="rect933"
       width="128.51421"
       height="128.10735"
       x="-0.053791583"
       y="0.16405821" />
    <path
       style="fill:none;stroke:none;stroke-width:1.75;stroke-linecap:round;stroke-linejoin:round;paint-order:markers fill stroke"
       id="path849"
       d="m 99.210371,31.686617 c -0.691645,0.10868 -1.390578,0.178281 -2.074944,0.326046 -2.841932,0.613619 -6.192997,1.609299 -8.87943,2.504175 -4.870858,1.622523 -8.645382,3.061113 -13.355863,5.208278 -2.325044,1.059823 -4.587779,2.251324 -6.881669,3.376988 -5.819408,3.359243 -7.060314,3.868796 -12.249653,7.578106 -1.463739,1.046276 -2.852121,2.19415 -4.278183,3.291221 0,0 0.982848,-0.392774 0.982848,-0.392774 v 0 c 1.365739,-1.070904 2.691805,-2.194433 4.097218,-3.212711 4.781847,-3.464645 5.791065,-3.872381 10.948265,-6.864911 2.285585,-1.120722 4.538128,-2.311511 6.856754,-3.362174 4.582991,-2.076744 8.289457,-3.466518 13.041572,-4.975056 2.488097,-0.789839 5.732881,-1.691928 8.394502,-2.162971 0.608644,-0.107717 1.230008,-0.123653 1.845011,-0.185478 0,0 1.553572,-1.128739 1.553572,-1.128739 z" />
    <path
       style="fill:#552200;fill-opacity:1;stroke:none;stroke-width:1.75;stroke-linecap:round;stroke-linejoin:round;paint-order:markers fill stroke"
       id="path939"
       d="m 29.780547,42.039085 c 0.345773,-1.023895 1.164175,-1.753015 1.925077,-2.479651 0.571047,-0.545333 1.146593,-1.086866 1.745654,-1.601266 2.16313,-1.85742 2.771826,-2.221029 5.160625,-3.958236 1.08988,-0.707477 4.407231,-2.750308 3.269636,-2.122429 -26.929961,14.86367 -9.328137,5.40707 -6.535593,4.171532 3.235268,-1.43142 6.67582,-2.589834 10.105516,-3.452019 1.74984,-0.439891 3.532198,-0.738486 5.298297,-1.107727 1.851374,-0.188005 3.695655,-0.469027 5.554122,-0.564012 5.864183,-0.299715 11.831178,0.230944 17.566926,1.474426 4.608518,0.999104 5.715857,1.57012 9.985407,3.152455 4.872339,2.283566 2.595208,1.090557 6.857799,3.528187 0,0 15.070067,-9.959886 15.070067,-9.959886 v 0 c -5.12731,-2.021081 -2.43154,-1.022779 -8.098593,-2.964275 -4.663231,-1.335755 -5.959705,-1.780858 -10.802908,-2.852338 -1.953178,-0.43211 -3.908454,-0.867631 -5.885238,-1.174143 -5.660218,-0.87765 -11.434958,-1.123058 -17.136867,-0.556004 -4.89426,0.879877 -5.707644,0.879373 -10.455211,2.312389 -11.514061,3.475431 -21.616608,10.248385 -31.624618,16.774624 -2.847849,2.053825 -5.679646,4.116702 -8.337095,6.417143 -4.0606747,3.515159 0.149811,-0.02666 -2.797307,2.652456 -0.203594,0.185084 -0.435317,0.336632 -0.6529747,0.504949 0,0 19.7872787,-8.196175 19.7872787,-8.196175 z" />
    <path
       style="fill:#552200;fill-opacity:1;stroke:none;stroke-width:1.75;stroke-linecap:round;stroke-linejoin:round;paint-order:markers fill stroke"
       id="path947"
       d="m 14.550419,52.847563 c 0.449964,1.771745 0.330355,3.632581 0.710973,5.41174 0.417117,1.94977 1.011545,3.858138 1.582458,5.768546 0.749518,2.508057 1.466701,5.030372 2.378061,7.484258 2.367254,6.373972 5.131341,11.916447 8.02034,18.07508 3.286511,6.369753 5.381437,10.620043 8.912929,16.762613 1.26301,2.19685 2.518022,4.40385 3.938445,6.50234 1.187813,1.75485 2.582902,3.36009 3.874355,5.04013 0,0 13.258538,-8.05875 13.258538,-8.05875 v 0 c -1.598192,-1.4275 -3.296775,-2.75 -4.79457,-4.2825 -3.711649,-3.79767 -7.368032,-8.585033 -10.1371,-13.069255 -1.733752,-2.807634 -3.170595,-5.788101 -4.755894,-8.682154 -1.252763,-3.156108 -2.730236,-6.23204 -3.758288,-9.468326 -0.97599,-3.0724 -1.693653,-6.231152 -2.238206,-9.408512 -0.937556,-5.470443 -1.037812,-9.313389 -0.191799,-14.674916 0.220827,-1.399455 0.6672,-2.756588 1.102569,-4.104804 0.25554,-0.791329 0.643837,-1.533459 0.965756,-2.300192 0,0 -18.868567,9.004702 -18.868567,9.004702 z" />
    <path
       style="fill:#552200;fill-opacity:1;stroke:none;stroke-width:1.75;stroke-linecap:round;stroke-linejoin:round;paint-order:markers fill stroke"
       id="path967"
       d="m 91.449552,41.002432 c 2.875362,2.633453 5.135999,5.879327 6.830674,9.382683 0.641596,1.326356 1.278585,2.66491 1.730964,4.067135 0.48589,1.506141 0.71545,3.083245 1.07317,4.624864 0.03,1.698347 0.30691,3.410339 0.09,5.095044 -0.55005,4.272489 -2.445716,8.410546 -4.710875,12.00554 -2.98201,4.732708 -6.834047,8.979834 -10.960135,12.726006 -2.186516,1.98519 -4.587864,3.720066 -6.881799,5.580097 -2.447875,1.617149 -4.975704,3.119327 -7.343621,4.851445 -1.395627,1.020884 6.125352,-3.006026 4.421095,-2.713641 -2.423589,0.415801 -4.424096,2.154082 -6.692488,3.103322 -4.695364,1.964863 -7.013009,2.545763 -11.74402,3.977863 0,0 -12.442815,9.64922 -12.442815,9.64922 v 0 c 4.536739,-1.5519 8.566084,-2.84507 13.003393,-4.73395 11.657679,-4.96246 22.598385,-11.673562 32.904308,-19.010434 2.303187,-1.915195 4.710009,-3.712208 6.909562,-5.745576 4.357445,-4.028236 8.377575,-8.572677 11.751395,-13.459965 3.01701,-4.370417 5.51546,-8.45262 6.49638,-13.722509 0.34007,-1.826985 0.0705,-3.716062 0.10571,-5.574093 -0.28973,-1.67685 -0.47669,-3.374742 -0.86919,-5.030555 -0.35873,-1.513385 -0.85821,-2.992027 -1.3798,-4.457279 -0.45703,-1.283904 -1.04965,-2.515579 -1.55315,-3.781978 -0.94603,-2.379448 -1.89783,-4.781079 -2.39131,-7.304663 0,0 -18.347457,10.471424 -18.347457,10.471424 z" />
    <path
       style="fill:#552200;fill-opacity:1;stroke:none;stroke-width:1.75;stroke-linecap:round;stroke-linejoin:round;paint-order:markers fill stroke"
       id="path973"
       d="m 42.078363,28.436985 c 0.349215,-0.02119 0.697828,-0.05823 1.047644,-0.06359 1.199115,-0.01839 2.397972,0.05469 3.597182,0.06502 1.027444,0.0088 4.859621,0.0019 5.761808,-0.04163 1.188812,-0.05726 2.373169,-0.185174 3.559754,-0.277762 10.227485,-1.180187 20.111908,-4.203216 29.929844,-7.176511 9.84305,-3.040246 19.750645,-5.861843 29.640885,-8.742171 0,0 9.03831,-7.0181647 9.03831,-7.0181647 v 0 c -1.3639,0.4969785 -2.72046,1.0145752 -4.09169,1.4909356 -3.55698,1.2356729 -6.40793,2.106255 -10.02367,3.2374152 -5.59979,1.7518549 -11.2058,3.4852769 -16.852059,5.0828719 -9.142867,2.637375 -18.355201,5.406045 -27.911031,5.975143 -1.046755,0.02842 -2.093208,0.09845 -3.140265,0.08526 -1.859045,-0.02342 -3.109296,-0.183513 -4.906052,-0.461477 -0.889297,-0.137577 -1.919735,-0.31643 -2.796683,-0.584897 -0.233024,-0.07134 -0.453168,-0.179427 -0.679752,-0.26914 0,0 -12.174225,8.698703 -12.174225,8.698703 z" />
    <path
       style="fill:#552200;fill-opacity:1;stroke:none;stroke-width:1.75;stroke-linecap:round;stroke-linejoin:round;paint-order:markers fill stroke"
       id="path975"
       d="m 74.229265,47.843144 c -0.12319,0.676251 -0.188942,1.365525 -0.369568,2.028748 -0.597016,2.192142 -1.774465,5.104236 -2.557991,7.165046 -0.541586,1.424469 -1.064853,2.856024 -1.623952,4.273714 -1.020654,2.58803 -2.272392,5.515687 -3.357729,8.088511 -0.574874,1.321443 -2.059337,4.708578 -2.653996,6.163797 -0.312923,0.765773 -0.59904,1.542219 -0.898562,2.313334 0,0 3.761026,-1.783125 3.761026,-1.783125 v 0 c 0.126994,-0.683564 0.231518,-1.371695 0.380987,-2.050698 0.467121,-2.122014 0.902843,-3.487732 1.518636,-5.6237 0.399336,-1.221838 0.771671,-2.452836 1.198007,-3.665519 1.097725,-3.122409 2.049264,-5.492954 3.432548,-8.522737 1.292911,-2.831838 2.502525,-5.290151 4.203176,-7.89595 0.626444,-0.959858 1.368206,-1.839301 2.052307,-2.758953 0,0 -5.084889,2.267532 -5.084889,2.267532 z" />
    <path
       style="fill:#552200;fill-opacity:1;stroke:none;stroke-width:1.75;stroke-linecap:round;stroke-linejoin:round;paint-order:markers fill stroke"
       id="path977"
       d="m 64.789852,42.83088 c -0.220496,0.05905 -0.45113,0.08852 -0.661485,0.177157 -0.424166,0.178734 -0.834075,0.392004 -1.233225,0.621231 -1.935247,1.111382 -3.87994,2.209263 -5.767811,3.399348 -0.889577,0.560774 -2.267529,1.883505 -2.909835,2.650051 -0.482973,0.576397 -0.878848,1.220491 -1.318273,1.830739 -0.293404,0.738426 -0.731544,1.434727 -0.880218,2.215277 -0.401958,2.110298 0.101237,3.741891 0.768662,5.742485 0.369887,1.108739 0.841282,2.181209 1.286505,3.261897 5.252347,12.748993 -2.316385,-5.963568 2.693217,6.467848 0.783304,2.247183 1.460405,3.825068 1.78458,6.201685 0.330227,2.420972 0.205992,4.40412 -0.353965,6.790839 -0.665652,2.837233 -1.547913,4.522665 -2.709621,7.183202 -1.772907,3.583061 -3.939712,6.946286 -6.144483,10.273138 0,0 4.103053,-1.836811 4.103053,-1.836811 v 0 c 1.343086,-3.188134 2.833545,-6.308763 4.266319,-9.457175 1.53543,-3.536148 3.31788,-7.134066 3.691422,-11.036405 0.216363,-2.260344 -0.119015,-4.437825 -0.814946,-6.582757 -0.332293,-1.02416 -0.836803,-1.984198 -1.255205,-2.976298 -0.465627,-1.043689 -0.946255,-2.080813 -1.396881,-3.131066 -0.998855,-2.327992 -1.826019,-4.163679 -2.319657,-6.665931 -0.397174,-2.01327 -0.518793,-3.928311 0.0658,-5.915792 0.227163,-0.772295 0.692187,-1.453642 1.038281,-2.180458 1.316238,-1.67037 1.42068,-2.004663 3.097821,-3.331615 0.558977,-0.442264 5.968005,-3.901646 -1.167633,0.483373 -0.290145,0.178305 0.828045,-0.407342 0.937559,-0.405921 0,0 5.200023,-3.778041 5.200023,-3.778041 z" />
    <path
       style="fill:#552200;fill-opacity:1;stroke:none;stroke-width:1.75;stroke-linecap:round;stroke-linejoin:round;paint-order:markers fill stroke"
       id="path979"
       d="m 44.677846,44.027209 c -0.02614,0.216628 -0.04061,0.434991 -0.07842,0.649891 -0.213292,1.212239 -0.628775,2.950025 -0.867551,4.047244 -0.527005,2.421644 -1.123741,4.946711 -1.326247,7.421962 -0.110901,1.355516 -0.04696,2.719681 -0.07044,4.079523 0.0075,3.423002 0.579956,6.797082 1.194591,10.15143 0.307543,1.678432 0.784153,3.944231 1.058367,5.630471 0.153125,0.941605 0.268486,1.888958 0.402731,2.833442 0.426296,3.458599 0.298944,6.939211 -0.139079,10.387195 -0.08998,0.708318 -0.185457,1.41638 -0.308684,2.119683 -0.11014,0.628607 -0.260731,1.249455 -0.391099,1.874184 0,0 4.136948,-2.031066 4.136948,-2.031066 v 0 c 0.176734,-2.019898 0.31641,-4.037082 0.32089,-6.066468 0.0041,-1.857227 -0.06249,-3.260315 -0.214395,-5.123127 -0.0765,-0.938106 -0.184189,-1.873409 -0.276286,-2.810113 -0.296098,-2.104273 -0.466725,-3.593669 -0.914683,-5.672727 -0.888658,-4.124429 -2.527128,-8.083003 -2.822876,-12.331801 0.01648,-1.342242 -0.105133,-2.693305 0.04944,-4.026715 0.524893,-4.528 2.657866,-9.144415 5.333291,-12.804645 0.216863,-0.296688 0.475445,-0.560504 0.713171,-0.840751 0,0 -5.799664,2.512388 -5.799664,2.512388 z" />
    <path
       style="fill:#552200;fill-opacity:1;stroke:none;stroke-width:1.75;stroke-linecap:round;stroke-linejoin:round;paint-order:markers fill stroke"
       id="path981"
       d="m 84.053739,54.154147 c 0.198233,0.373843 0.427363,0.73288 0.594701,1.121537 1.250466,2.90431 1.972281,6.233734 2.008333,9.390311 0.01852,1.621311 -0.09623,3.248652 -0.331158,4.852959 -0.25078,1.71261 -0.747919,3.379988 -1.121878,5.069982 -0.569542,1.642142 -1.067025,3.311076 -1.708624,4.926426 -1.192035,3.001184 -2.581571,5.664446 -4.170375,8.461084 -0.64974,1.143682 -1.326923,2.272299 -2.033091,3.382025 -0.60638,0.952919 -1.268711,1.869059 -1.903065,2.803586 0,0 2.989426,-1.324872 2.989426,-1.324872 v 0 c 0.923126,-1.795235 2.035651,-3.912727 2.858326,-5.728612 0.551958,-1.218333 1.065297,-2.454109 1.566783,-3.694071 1.865884,-4.613558 1.698384,-4.381558 3.315951,-9.265187 1.29267,-5.032015 1.48834,-5.233675 2.235639,-10.345986 0.734346,-5.02367 0.435513,-3.772662 0.660612,-8.288414 0.119642,-2.40016 0.126458,-2.202773 0.395531,-4.15952 0,0 -5.357111,2.798752 -5.357111,2.798752 z" />
    <path
       style="fill:#552200;fill-opacity:1;stroke:none;stroke-width:1.75;stroke-linecap:round;stroke-linejoin:round;paint-order:markers fill stroke"
       id="path983"
       d="m 76.058189,61.005122 c 0.0828,0.208018 0.185992,0.409038 0.248399,0.624057 0.266396,0.917821 0.353547,1.649513 0.410776,2.623301 0.08912,1.516473 0.07225,2.442549 -0.178438,3.973188 -0.127598,0.779086 -0.336703,1.542618 -0.505052,2.313926 -0.269134,0.826209 -0.498375,1.666502 -0.807397,2.478638 -1.07786,2.832703 -2.561053,5.523185 -4.273939,8.018817 -1.270548,1.85115 -2.359176,3.114776 -3.769458,4.84292 -0.589479,0.693772 -1.186138,1.381506 -1.768435,2.081321 -1.320025,1.586429 -1.857079,2.240383 -3.015145,3.936312 -0.483406,0.70792 -0.932079,1.438953 -1.400288,2.157019 -0.487982,0.748387 -0.978855,1.49488 -1.468282,2.242325 0,0 3.415385,-1.496409 3.415385,-1.496409 v 0 c 0.49667,-0.748073 0.978493,-1.506218 1.490006,-2.244215 0.524965,-0.757401 1.077362,-1.495427 1.61883,-2.241126 1.426593,-1.964675 2.891049,-3.899818 4.370615,-5.8249 0.554111,-0.742321 1.119814,-1.476121 1.662329,-2.226953 3.013178,-4.170186 5.802537,-8.562351 7.526867,-13.438045 0.613558,-2.14838 0.804375,-2.5844 1.171733,-4.742622 0.337048,-1.980147 0.359828,-4.008046 0.824918,-5.967029 0,0 -5.553424,2.889475 -5.553424,2.889475 z" />
    <path
       style="fill:#552200;fill-opacity:1;stroke:none;stroke-width:1.75;stroke-linecap:round;stroke-linejoin:round;paint-order:markers fill stroke"
       id="path985"
       d="m 35.296186,48.284776 c 0.04868,0.175699 0.121481,0.346445 0.14605,0.5271 0.145976,1.073343 -0.05659,2.211197 -0.234553,3.263826 -0.06566,0.38835 -0.515046,2.722499 -0.581737,3.070664 -0.495773,2.170422 -0.447923,4.415507 0.105146,6.573012 0.289192,1.128128 0.724537,2.117164 1.15448,3.195164 0.778339,1.755423 1.667103,3.456125 2.407003,5.229095 0.23963,0.574207 0.455237,1.158145 0.682855,1.737218 0,0 4.006342,-2.250102 4.006342,-2.250102 v 0 c -1.072026,-2.304155 -2.094394,-4.628716 -2.939693,-7.027762 -0.556482,-1.542521 -1.141367,-3.08969 -1.353497,-4.728099 -0.210256,-1.623946 -0.06243,-3.248477 0.298595,-4.838882 0.120068,-0.532715 0.230267,-1.06775 0.360204,-1.598147 0.141235,-0.57653 0.645623,-2.406388 0.805725,-3.011628 0.655003,-2.476156 0.04479,-0.161417 0.548728,-2.270733 0.05785,-0.242123 0.127002,-0.481407 0.190505,-0.722109 0,0 -5.596153,2.851383 -5.596153,2.851383 z" />
    <path
       style="fill:#552200;fill-opacity:1;stroke:none;stroke-width:1.75;stroke-linecap:round;stroke-linejoin:round;paint-order:markers fill stroke"
       id="path987"
       d="m 90.456232,56.534489 c 1.273503,1.335188 1.743461,3.153818 2.252829,4.873149 0.665927,2.576875 0.797483,5.237676 0.918546,7.88262 0.124389,2.717583 0.109667,1.405306 0.04069,4.114941 -0.121359,2.21072 -0.55804,3.919915 -1.73741,5.815478 -0.837655,1.346337 -1.873805,2.506787 -2.985405,3.628839 -0.556844,0.562087 -1.155274,1.08139 -1.732912,1.622082 0,0 3.815794,-1.573179 3.815794,-1.573179 v 0 c 2.153947,-2.158201 4.690573,-4.562602 5.84684,-7.446793 0.611663,-1.525733 0.571156,-2.429973 0.708675,-4.032805 0.01905,-1.915742 0.04887,-2.228983 -0.04001,-4.151313 -0.125568,-2.71594 -0.395697,-5.424956 -0.566243,-8.138033 -0.05627,-0.563856 -0.09867,-1.129268 -0.168804,-1.691566 -0.170794,-1.369245 -0.509995,-2.702782 -0.758259,-4.056724 0,0 -5.594339,3.153304 -5.594339,3.153304 z" />
    <path
       style="fill:#552200;fill-opacity:1;stroke:none;stroke-width:1.75;stroke-linecap:round;stroke-linejoin:round;paint-order:markers fill stroke"
       id="path989"
       d="m 36.276925,42.352696 c 0.236054,-0.0745 0.467906,-0.163931 0.708161,-0.223502 0.329438,-0.08168 2.078294,-0.382201 2.21302,-0.402399 1.255837,-0.188262 2.3754,-0.308171 3.648202,-0.400537 0.668644,-0.04852 1.338802,-0.07326 2.008203,-0.109895 0.651211,-0.01751 1.302295,-0.04054 1.953631,-0.05255 0.262869,-0.0048 3.432236,-0.03116 3.705098,-0.03372 1.882494,-0.0176 2.626124,-0.03936 4.573487,-0.0044 0.925803,0.01662 1.851181,0.0518 2.776773,0.0777 2.623537,0.140448 5.237316,0.415959 7.825044,0.871656 1.57816,0.277913 3.135021,0.651142 4.690774,1.030973 1.77429,0.458105 3.535865,0.983827 5.22138,1.709751 1.057563,0.455475 1.276943,0.602554 2.262899,1.138616 1.726658,0.990856 3.383002,2.109075 5.143326,3.040964 0.366194,0.193858 0.740127,0.372724 1.110189,0.559086 1.092303,0.562756 2.193845,1.104662 3.272438,1.693564 0,0 4.812347,-3.215035 4.812347,-3.215035 v 0 c -1.256376,-0.388553 -2.500521,-0.808931 -3.694604,-1.366467 -1.096823,-0.54724 -2.16548,-1.109747 -3.203724,-1.763418 -0.337259,-0.212339 -1.653992,-1.088136 -2.009809,-1.291654 -0.341902,-0.195556 -0.701013,-0.359362 -1.051523,-0.539043 -1.240285,-0.566166 -2.49033,-1.111994 -3.757554,-1.61589 -0.742223,-0.295138 -1.849451,-0.712571 -2.623466,-0.926153 -0.448561,-0.123777 -0.90746,-0.206454 -1.361191,-0.309682 -1.618348,-0.191465 -1.643867,-0.213889 -3.363719,-0.328932 -0.731875,-0.04896 -1.465244,-0.07348 -2.197148,-0.122008 -2.058262,-0.136464 -3.220469,-0.245374 -5.294402,-0.460105 -0.907892,-0.094 -1.814608,-0.199019 -2.721912,-0.298529 -0.456099,-0.04876 -4.137782,-0.447321 -4.732554,-0.492874 -0.652302,-0.04996 -1.306153,-0.08553 -1.960277,-0.09612 -1.916332,-0.03102 -3.83309,0.141208 -5.749108,0.140099 -1.672587,0.02402 -3.341409,0.02804 -5.013923,0.0031 -0.339658,-0.0051 -0.679275,-0.01564 -1.018971,-0.01569 -0.235905,-4.8e-5 -0.471765,0.02305 -0.707546,0.01535 -0.145243,-0.0047 -0.288525,-0.035 -0.432789,-0.0525 0,0 -5.030752,3.840265 -5.030752,3.840265 z" />
  </g>
</svg>
